<?xml version="1.0" encoding="utf-8"?>
<!-- Generator: Adobe Illustrator 24.1.2, SVG Export Plug-In . SVG Version: 6.00 Build 0)  -->
<svg version="1.1" xmlns="http://www.w3.org/2000/svg" xmlns:xlink="http://www.w3.org/1999/xlink" x="0px" y="0px"
	 viewBox="0 0 150 120" style="enable-background:new 0 0 150 120;" xml:space="preserve">
<style type="text/css">
	.st0{fill:url(#SVGID_1_);}
	.st1{clip-path:url(#XMLID_2_);fill:url(#SVGID_2_);}
	.st2{clip-path:url(#XMLID_2_);fill:url(#SVGID_3_);}
	.st3{clip-path:url(#XMLID_2_);fill:url(#SVGID_4_);}
	.st4{clip-path:url(#XMLID_2_);fill:url(#SVGID_5_);}
	.st5{clip-path:url(#XMLID_2_);fill:url(#SVGID_6_);}
	.st6{clip-path:url(#XMLID_2_);fill:url(#SVGID_7_);}
	.st7{opacity:0.5;clip-path:url(#XMLID_2_);fill:url(#SVGID_8_);}
	.st8{clip-path:url(#XMLID_2_);fill:url(#SVGID_9_);}
	.st9{opacity:0.5;clip-path:url(#XMLID_2_);fill:url(#SVGID_10_);}
	.st10{opacity:0.5;clip-path:url(#XMLID_2_);fill:url(#SVGID_11_);}
	.st11{clip-path:url(#XMLID_2_);fill:url(#SVGID_12_);}
	.st12{clip-path:url(#XMLID_2_);fill:url(#SVGID_13_);}
	.st13{fill:url(#SVGID_14_);}
	.st14{fill:url(#SVGID_15_);}
	.st15{fill:url(#SVGID_16_);}
	.st16{fill:#001730;}
	.st17{fill:url(#SVGID_17_);}
	.st18{fill:url(#SVGID_18_);}
	.st19{opacity:0.8;}
	.st20{fill:url(#SVGID_19_);}
	.st21{clip-path:url(#XMLID_3_);fill:url(#SVGID_20_);}
	.st22{clip-path:url(#XMLID_3_);fill:url(#SVGID_21_);}
	.st23{clip-path:url(#XMLID_3_);fill:url(#SVGID_22_);}
	.st24{clip-path:url(#XMLID_3_);fill:url(#SVGID_23_);}
	.st25{clip-path:url(#XMLID_3_);fill:url(#SVGID_24_);}
	.st26{clip-path:url(#XMLID_3_);fill:url(#SVGID_25_);}
	.st27{clip-path:url(#XMLID_3_);fill:url(#SVGID_26_);}
	.st28{clip-path:url(#XMLID_3_);fill:url(#SVGID_27_);}
	.st29{clip-path:url(#XMLID_3_);fill:url(#SVGID_28_);}
	.st30{clip-path:url(#XMLID_3_);fill:url(#SVGID_29_);}
	.st31{clip-path:url(#XMLID_3_);fill:url(#SVGID_30_);}
	.st32{clip-path:url(#XMLID_3_);fill:url(#SVGID_31_);}
	.st33{fill:url(#SVGID_32_);}
	.st34{fill:url(#SVGID_33_);}
	.st35{fill:url(#SVGID_34_);}
	.st36{fill:url(#SVGID_35_);}
	.st37{fill:url(#SVGID_36_);}
	.st38{fill:url(#SVGID_37_);}
	.st39{fill:url(#SVGID_38_);}
	.st40{fill:url(#SVGID_39_);}
	.st41{fill:url(#SVGID_40_);}
	.st42{fill:url(#SVGID_41_);}
	.st43{fill:url(#SVGID_42_);}
	.st44{fill:url(#SVGID_43_);}
</style>
<g id="BACKGROUND">
</g>
<g id="OBJECTS">
	<g>
		<g>
			<g>
				
					<linearGradient id="SVGID_1_" gradientUnits="userSpaceOnUse" x1="105.6765" y1="5.6228" x2="59.5587" y2="129.7129" gradientTransform="matrix(0.9511 -7.190000e-02 -0.1177 0.9766 10.6164 4.8282)">
					<stop  offset="1.886790e-03" style="stop-color:#ADF7FF"/>
					<stop  offset="2.806865e-02" style="stop-color:#A4ECF6"/>
					<stop  offset="0.1594" style="stop-color:#7CBBCD"/>
					<stop  offset="0.2941" style="stop-color:#5A91A9"/>
					<stop  offset="0.4298" style="stop-color:#3E6E8C"/>
					<stop  offset="0.567" style="stop-color:#285376"/>
					<stop  offset="0.7063" style="stop-color:#184066"/>
					<stop  offset="0.8489" style="stop-color:#0F355C"/>
					<stop  offset="1" style="stop-color:#0C3159"/>
				</linearGradient>
				<path class="st0" d="M57.1,119c-0.9,0.1-1.7-0.5-1.9-1.3c-0.3-1,0.3-2.3,1.4-2.9c6-3.6,10.1-7.2,12.1-9.1l-0.1-0.2
					c-0.5-0.9-0.2-2.1,0.6-2.9c0.8-0.8,1.7-1.7,2.6-2.7c-1.2-0.6-2.3-1.3-3.4-2.1c-2.2,1.2-4.9,2-7.8,2.2c-4.6,0.3-8.9-0.8-11.8-3.1
					c-2.1,1.1-4.4,1.8-6.8,2c-2.9,0.2-5.6-0.4-7.6-1.7c-1.6,0.7-3.3,1.2-5,1.3c-3.3,0.2-6.4-0.6-8.3-2.2c-2,0.7-4,1.1-6,1.3
					C11.7,97.8,8.6,97.3,6,96c-4.5-2.2-5.7-5.7-6-8.2c-0.3-3.3,0.8-6.9,3-9.5c2.8-3.4,7.6-5.8,12.2-6.2c0.2,0,0.4,0,0.5,0
					c0-3.6,1-7.2,3.1-10.3c1.9-2.9,4.6-5.2,7.7-6.5c0-0.3,0-0.6,0-0.9c-0.1-3.5,1.4-9.3,5.7-14c2.8-3.1,8.1-7,16.9-7.7
					c0.9-0.1,1.9-0.1,2.9-0.1c4.5-7.3,11.3-11.6,19.3-12.2c1.3-0.1,2.7-0.1,4,0c1.3-6.2,5.9-11.8,12.7-15.4c4-2.1,8.8-3.5,13.5-3.8
					c10.4-0.8,21.9,3.4,24,17.3c1.9-0.6,3.6-1,5.3-1.2c5.7-0.4,10.2,2.2,12,7c1.3,3.5,0.9,7.4-0.9,10.8c5.3,2.4,8.1,6.8,8,12.4
					c-0.2,6-3.8,12.5-9.2,16.9c0.8,1,1.4,2.1,1.8,3.3c0.1,0,0.2,0,0.2,0c0.1,0,0.1,0,0.2,0c0.6,0,1.1,0.2,1.5,0.6
					c3,3.4,4,5.7,4.1,5.9c0.3,0.7,0.1,1.5-0.3,2.2c-1.6,2.4-3.4,4.9-5.4,7.3c0.3,1.2,0.2,2.5-0.3,3.7c-0.4,0.9-0.9,1.6-1.6,2.2
					c-0.3,1-0.8,1.9-1.5,2.6c-0.5,0.6-1.1,1-1.7,1.4c-0.7,1.3-1.9,2.2-3.1,2.7c-0.9,1.1-2.2,1.8-3.5,2c-0.1,0-0.2,0-0.3,0
					c0,0,0,0,0,0c0,0.3,0,0.6-0.1,0.9c-0.2,0.7-0.7,1.3-1.3,1.6c-15.2,9-23.3,11.4-23.6,11.5c-0.2,0-0.3,0.1-0.5,0.1
					c-0.9,0.1-1.7-0.5-1.9-1.3c-0.3-1,0.3-2.3,1.4-2.9c6-3.6,10.1-7.2,12.1-9.1l-0.1-0.2c-0.1-0.1-0.1-0.3-0.2-0.4
					c-3.9,0.2-7.8-0.8-11.4-3.1c-5.1,4-12,6.7-18.8,7.2c-0.5,0-1.1,0.1-1.6,0.1c-0.9,0.5-1.8,0.9-2.8,0.9c0,0-0.1,0-0.1,0l0.2,0.3
					c0.3,0.5,0.4,1.2,0.2,1.8c-0.2,0.7-0.7,1.3-1.3,1.6c-15.2,9-23.3,11.4-23.6,11.5C57.4,118.9,57.2,119,57.1,119z"/>
				<g>
					<defs>
						<path id="XMLID_8_" d="M130.7,80.5c0.3,1.1,0.5,2.2,0.4,3.3c9-3.1,11.2-13.7,4.6-18.6c-1.9,1-3.9,1.6-6,1.9
							c20-9.3,19.4-27.8,7.6-29.3c-0.9,0.8-2.1,1.6-3.3,2.2c6.1-4.2,7.4-11.7,3.9-15.5c-4-4.4-11.1-2.9-16-0.1
							C121.2,4.9,103,2.9,91.1,8.2c-9,4-15.2,14.3-9.7,25.6c-2.3-2.5-3.7-5.5-4-8.6c-9.2-2-20.1,3-22.8,12.1
							c-3.9-0.6-11.7-1.1-18.1,4.7s-9.1,16.9,0.1,22c-4-1.3-6.1-3.1-7.1-5.8c-9.1,2.8-10.8,14.4-9,18.7C9.3,73.2,0.8,84,6.4,90.5
							c3.9,4.5,13,4.3,22.7-1.6c-1.4,1.5-3.1,2.8-4.9,3.8c3.2,2.4,7.7,1.9,11.2-0.1c7.3,4.5,13.1,1.6,18.2-2.6
							c-0.8,1.2-1.7,2.3-2.7,3.2c4,3.4,13.1,4,18.9-0.9c1.8,1.7,4.2,3.2,7.1,4.3c-0.5-1.1-0.8-2.3-1-3.5
							C69.5,90.2,52.4,82.1,49,79.2c-3.3-2.9-3.7-4.1-2.6-12c0.5-4.2,3.9-11.7,15.3-18.9c-11.9,10.3-13.8,18.1-14,23
							c-0.2,4.9,1.2,5.8,6.6,9c5.4,3.1,16.4,8.7,18.2,9.4c2.4,0.9,3.7,2.2,4.4-0.2c0.6,1.2,0.1,2.4,1.9,6.3c1.8,3.9,3,4.2,5.6,3.2
							c-0.7-0.6-1.3-1.6-1.3-1.6c3.3,1.9,4.2-0.4,4.2-0.4c-1.8-0.6-2.5-1.8-2.5-1.8c4.9,2,5.4-1.3,5.4-1.3c-2.3,0.2-3.7-1.1-3.7-1.1
							c2.9,0.6,4.4-0.2,4.4-0.2c1.9-2.9-0.5-3.7-2-4.8c-1.5-1.1-0.8-2.1,0-3.4c0.8-1.4-1.8-1.8-7.1,0c0,0-3.1-1.2-6.9-5.8
							c-3.8-4.6-6.8-6.9-12.9-12.9c1.8,0.5,3.5,1.5,5.1,2.8c6-2.3,8.2-6.1,11.7-9.6c-1.8,3.2-4.5,7.7-10.3,10.9
							c3.9,3.6,7.8,8.8,13.4,12.9c3.9-0.7,6.7-1.2,8-0.2c2.8-3.5,4.6-5.8,4.6-5.8c2.9,3.3,3.7,5.4,3.7,5.4c-1.7,2.7-3.6,5.2-5.5,7.5
							c0.1,0.2,0.2,0.3,0.2,0.4c0,0.7-0.3,2.4-1.1,3.3c-0.6,1.1-0.6,2.3-2.5,3.4c-0.2,0.5-0.5,1-0.8,1.5c7.3-0.4,15.2-3.6,21.6-11.1
							c-0.7,1.3-1.6,2.6-2.6,3.8C115.6,97.7,130.1,94,130.7,80.5z M106.2,65.3c1.5-1.1,2.6-0.5,2.5,0.4
							C108.2,65.4,107.6,65.1,106.2,65.3z M112.2,67.6c-0.2-3.2-0.8-4.5-5.5-4.9c-4.7-0.4-5.5,2.9-10.3,4.1
							c4.1-3.1,5.7-5.8,10.1-5.5C110.8,61.7,113.8,63,112.2,67.6z M115.9,55.8c-0.2-0.3-0.3-0.6-0.4-1.1c-1.3-0.1-1.9-0.6-2.2-1.3
							c-1.7,1.4-3.9,1.9-5,0.8c-1.3,0.8-2.5,1.2-3.6,1.3C95.4,67,88.6,57,90.4,42c-1.9-0.9-4.5-1.5-8.5-1.5c7.1-2.7,11.6-0.7,15.8,6
							c3.5,5.6,5.2,9,11,5.7c2.4,3,6.5-1.3,6.9-5.6c0.6,2.3-0.1,4.3-1.2,5.7c0.5,1.1,2.3,1.1,2.3,1.1c1.7,4.9,9.1-4.2,12.5-1.2
							c-0.5-0.1-1-0.1-1.6,0.1C122.1,61.6,114.9,62.2,115.9,55.8z"/>
					</defs>
					<clipPath id="XMLID_2_">
						<use xlink:href="#XMLID_8_"  style="overflow:visible;"/>
					</clipPath>
					
						<linearGradient id="SVGID_2_" gradientUnits="userSpaceOnUse" x1="84.3482" y1="1.4651" x2="68.1807" y2="106.8326" gradientTransform="matrix(0.9511 -7.190000e-02 -0.1177 0.9766 10.6164 4.8282)">
						<stop  offset="0.1047" style="stop-color:#6EC5FF"/>
						<stop  offset="0.5737" style="stop-color:#39689A"/>
						<stop  offset="0.8934" style="stop-color:#142652"/>
					</linearGradient>
					<polygon class="st1" points="143.7,98 -2.8,109.1 9.4,8.1 155.9,-3 					"/>
					
						<linearGradient id="SVGID_3_" gradientUnits="userSpaceOnUse" x1="126.547" y1="91.8025" x2="158.8681" y2="79.0173" gradientTransform="matrix(0.9511 -7.190000e-02 -0.1177 0.9766 10.6164 4.8282)">
						<stop  offset="0" style="stop-color:#655D73"/>
						<stop  offset="1" style="stop-color:#E1D9FF;stop-opacity:0"/>
					</linearGradient>
					<path class="st2" d="M130.8,81.7c3.6-0.3,7.4-3.4,8.7-9.3l0.7-0.1c-0.7,5.9-2.3,9.7-9.8,12.3"/>
					
						<linearGradient id="SVGID_4_" gradientUnits="userSpaceOnUse" x1="49.9761" y1="47.1071" x2="-27.5222" y2="106.9128" gradientTransform="matrix(0.9511 -7.190000e-02 -0.1177 0.9766 10.6164 4.8282)">
						<stop  offset="0" style="stop-color:#655D73"/>
						<stop  offset="1" style="stop-color:#E1D9FF;stop-opacity:0"/>
					</linearGradient>
					<path class="st3" d="M31.8,60.3c-7.2,3-10.6,12.1-7.5,18.6c-10.7-2.6-17.9,0.8-19.7,6.6l-1-0.3c0.8-8.4,10.3-11.5,15.6-9.7
						c-0.5-10.2,2.6-15.4,10.9-18.3"/>
					
						<linearGradient id="SVGID_5_" gradientUnits="userSpaceOnUse" x1="98.866" y1="49.7836" x2="71.6735" y2="84.596" gradientTransform="matrix(0.9511 -7.190000e-02 -0.1177 0.9766 10.6164 4.8282)">
						<stop  offset="0" style="stop-color:#FFFFFF"/>
						<stop  offset="1" style="stop-color:#FFFFFF;stop-opacity:0"/>
					</linearGradient>
					<path class="st4" d="M61.9,65.6c3.4,4.7,6.8,6.8,9.3,10c2.1,2.7,4.6,5,4.4,8.3c1-1.7,2.6-1.5,5.7,1.7c3.6-2.3,5.9-2.4,7.5-2.2
						l0.1-0.8L82,83.1c0,0-2.2-0.5-4.1-2.6C72.5,74.4,65.1,67.4,61.9,65.6z"/>
					
						<linearGradient id="SVGID_6_" gradientUnits="userSpaceOnUse" x1="109.0671" y1="54.4311" x2="107.486" y2="71.3716" gradientTransform="matrix(0.9511 -7.190000e-02 -0.1177 0.9766 10.6164 4.8282)">
						<stop  offset="0" style="stop-color:#FFFFFF"/>
						<stop  offset="1" style="stop-color:#FFFFFF;stop-opacity:0"/>
					</linearGradient>
					<path class="st5" d="M96.4,66.8c3.1-2.2,5.1-5.7,8-6.1c3.9-0.6,6.9,0.8,7.8,1.9c0.9,1.1,0.7,3.3-0.1,5c0.4-3.2-0.5-4.8-3.3-5.3
						c-2.8-0.5-5.1-0.7-6.8,0.8C100.4,64.6,97.7,66.7,96.4,66.8z"/>
					
						<linearGradient id="SVGID_7_" gradientUnits="userSpaceOnUse" x1="105.612" y1="33.5396" x2="95.1532" y2="55.5031" gradientTransform="matrix(0.9511 -7.190000e-02 -0.1177 0.9766 10.6164 4.8282)">
						<stop  offset="0" style="stop-color:#FFFFFF"/>
						<stop  offset="1" style="stop-color:#FFFFFF;stop-opacity:0"/>
					</linearGradient>
					<path class="st6" d="M81.9,40.5c7.7-4.2,12.9-1.5,16.8,4.4c4.4,6.8,6.7,8.7,11.2,5.6c0.9,2.2,4.1,1.5,5.8-3.9
						c0.3,4-2.6,8.3-6.7,7c-5.4,0.8-8.8,1-12.4-6.4C92.8,39.7,86.2,38.8,81.9,40.5z"/>
					
						<linearGradient id="SVGID_8_" gradientUnits="userSpaceOnUse" x1="46.1415" y1="15.6736" x2="53.9608" y2="52.1307" gradientTransform="matrix(0.9511 -7.190000e-02 -0.1177 0.9766 10.6164 4.8282)">
						<stop  offset="0" style="stop-color:#FFFFFF"/>
						<stop  offset="1" style="stop-color:#FFFFFF;stop-opacity:0"/>
					</linearGradient>
					<path class="st7" d="M78.6,29.5c-2.3-2.7-16.8-4.6-23.3,8.9c-12.5-1.2-22.1,4-24.5,13.9c-0.3-4.1,4.6-17.3,22.8-16.3
						c9.2-12.5,16.7-13.2,24.9-11.4L78.6,29.5z"/>
					
						<linearGradient id="SVGID_9_" gradientUnits="userSpaceOnUse" x1="125.0677" y1="49.6284" x2="124.0218" y2="60.8343" gradientTransform="matrix(0.9511 -7.190000e-02 -0.1177 0.9766 10.6164 4.8282)">
						<stop  offset="0" style="stop-color:#FFFFFF"/>
						<stop  offset="1" style="stop-color:#FFFFFF;stop-opacity:0"/>
					</linearGradient>
					<path class="st8" d="M114.8,53.3c1.1,0,2-0.7,2.1-1.9c1,5.7,10.1-2.9,12.2,0.8c-2-0.7-4.6,0.7-8.3,2.6c-3.7,2-4.5-0.1-5-0.9"/>
					
						<linearGradient id="SVGID_10_" gradientUnits="userSpaceOnUse" x1="157.8815" y1="33.0957" x2="133.1536" y2="67.7596" gradientTransform="matrix(0.9511 -7.190000e-02 -0.1177 0.9766 10.6164 4.8282)">
						<stop  offset="0" style="stop-color:#FFFFFF"/>
						<stop  offset="1" style="stop-color:#FFFFFF;stop-opacity:0"/>
					</linearGradient>
					<path class="st9" d="M136.3,38.6c8.7,2.2,13.2,14.1-1.6,25.7c5.9-3.1,10.9-8.4,11.6-15.2c0.7-6.8-2.1-10.8-8.6-12"/>
					
						<linearGradient id="SVGID_11_" gradientUnits="userSpaceOnUse" x1="110.9201" y1="5.7311" x2="110.9201" y2="110.1485" gradientTransform="matrix(0.9511 -7.190000e-02 -0.1177 0.9766 10.6164 4.8282)">
						<stop  offset="0" style="stop-color:#FFFFFF"/>
						<stop  offset="1" style="stop-color:#FFFFFF;stop-opacity:0"/>
					</linearGradient>
					<path class="st10" d="M85.7,11.7c5.6-4.9,21.7-6.1,27.8,0.2c0,0-2.8-0.9-7.2-0.5c10.7,1.2,14.2,10.2,13.8,16.2
						c9.2-6.5,18-4.5,19.6,1.9l1.1-0.1c0,0-2.1-14-17.7-6.5c-0.8-10.3-6-15.1-15.7-18.2S87.1,10.4,85.7,11.7z"/>
					
						<linearGradient id="SVGID_12_" gradientUnits="userSpaceOnUse" x1="80.3523" y1="67.9278" x2="33.8842" y2="103.7874" gradientTransform="matrix(0.9511 -7.190000e-02 -0.1177 0.9766 10.6164 4.8282)">
						<stop  offset="0" style="stop-color:#655D73"/>
						<stop  offset="1" style="stop-color:#E1D9FF;stop-opacity:0"/>
					</linearGradient>
					<path class="st11" d="M54.1,54.3c-5.9,5.6-7.9,8.8-9,13.5c-1.2,5-2,8.8,0.5,11.3c2.9,3,12.2,7.2,14.7,8.9
						c2.5,1.7,2.9,7.1-5.4,7.9c4.1,1.4,10,1,14.8-2.1l7,3.9L78,97l-1.4-5.1c0,0-18.4-6.4-26.1-12.1C42.9,74.1,47,63.8,54.1,54.3z"/>
					
						<linearGradient id="SVGID_13_" gradientUnits="userSpaceOnUse" x1="58.0917" y1="85.3882" x2="105.3046" y2="66.7123" gradientTransform="matrix(0.9511 -7.190000e-02 -0.1177 0.9766 10.6164 4.8282)">
						<stop  offset="0" style="stop-color:#655D73"/>
						<stop  offset="1" style="stop-color:#E1D9FF;stop-opacity:0"/>
					</linearGradient>
					<path class="st12" d="M78.3,59.1c-1.6,4.4-4.9,8.5-7.1,10.2c5.4,8.1,10.3,11.7,11.2,12.1s5.8-1.6,7.4,0.9l-0.2,0.8
						c0,0-2.9-1.2-7.1,0.3c0,0-7.4-5-12-10.7L67,69.2C67,69.2,73.7,66.2,78.3,59.1z"/>
				</g>
				
					<linearGradient id="SVGID_14_" gradientUnits="userSpaceOnUse" x1="99.3301" y1="43.4345" x2="96.3236" y2="66.1507" gradientTransform="matrix(0.9511 -7.190000e-02 -0.1177 0.9766 10.6164 4.8282)">
					<stop  offset="1.886790e-03" style="stop-color:#FFFF00"/>
					<stop  offset="1" style="stop-color:#FF7300"/>
				</linearGradient>
				<path class="st13" d="M102.9,55.5c-3.8-0.8-5.6-5.4-7.3-7.9c-1-1.4-1.8-2.9-3.1-4.1C90.9,52.9,95.6,63.8,102.9,55.5z"/>
				
					<linearGradient id="SVGID_15_" gradientUnits="userSpaceOnUse" x1="124.2365" y1="56.2389" x2="122.8224" y2="66.9237" gradientTransform="matrix(0.9511 -7.190000e-02 -0.1177 0.9766 10.6164 4.8282)">
					<stop  offset="1.886790e-03" style="stop-color:#FFFF00"/>
					<stop  offset="1" style="stop-color:#FF7300"/>
				</linearGradient>
				<path class="st14" d="M116.7,55.9c-0.9,6.1,6.4,3.2,9.1-3.1C122.6,54.2,118.7,56.7,116.7,55.9z"/>
				
					<linearGradient id="SVGID_16_" gradientUnits="userSpaceOnUse" x1="154.7414" y1="38.9625" x2="140.9954" y2="103.3097" gradientTransform="matrix(0.9511 -7.190000e-02 -0.1177 0.9766 10.6164 4.8282)">
					<stop  offset="1.672840e-03" style="stop-color:#6EC5FF"/>
					<stop  offset="1" style="stop-color:#1C3470"/>
				</linearGradient>
				<path class="st15" d="M139.7,86.7c-0.2,0.4-0.5,0.6-0.8,0.8c-0.2,0.1-0.4,0.2-0.7,0.2c-0.6,0.1-1.3,0-2.1-0.4
					c-0.5-0.2-0.9-0.6-1.2-1c-0.1-0.2-0.2-0.5-0.3-0.7c-0.1-0.3,0-0.7,0.2-0.9c0.2-0.2,0.5-0.4,0.8-0.4c0.1,0,0.3,0,0.4,0
					c0,0.6,0.2,1,0.4,1.3c0.4,0.4,0.9,0.5,1.4,0.5c0.6-0.1,1.3-0.4,1.8-0.9C139.9,85.7,139.9,86.2,139.7,86.7z M135.7,90.7
					c0.2,0.1,0.5,0.1,0.7,0.1l0.1,0c0.4-0.1,0.7-0.2,1-0.5c0.3-0.4,0.5-0.9,0.6-1.5c-0.2,0-0.5,0-0.7,0c-1.8-0.2-3.1-0.9-3.5-2.1
					c-0.4,0.4-0.5,1.1-0.3,1.8c0.1,0.2,0.1,0.4,0.2,0.6c0.1,0.2,0.2,0.4,0.4,0.6C134.6,90.2,135.2,90.6,135.7,90.7z M134.7,91.6
					c-1.5-0.8-2.1-1.7-2.3-2.4c-0.3,0.1-0.6,0.4-0.7,0.8c0,0,0,0,0,0.1c-0.1,0.2-0.1,0.4-0.1,0.6c0,0,0,0.1,0,0.1
					c0,0.5,0.2,0.9,0.4,1.3c0.4,0.6,0.8,0.9,1.3,1.1c0,0,0.1,0,0.1,0c0.2,0.1,0.4,0.1,0.5,0.1c0.1,0,0.1,0,0.2,0
					c0.6-0.1,1.1-0.6,1.3-1.4C135.2,91.8,134.9,91.7,134.7,91.6z M130.6,94.7c0.2,0.1,0.3,0.2,0.5,0.3c0.2,0,0.3,0.1,0.5,0
					c0.5-0.1,0.9-0.4,1.2-1c-0.2-0.1-0.3-0.2-0.5-0.3c-1.3-0.9-1.9-2.1-1.7-3.4c0,0,0,0,0,0c-0.3,0-0.5,0.3-0.7,0.6
					c-0.1,0.2-0.2,0.4-0.3,0.7c-0.1,0.5-0.1,1,0.1,1.5C129.9,93.9,130.2,94.4,130.6,94.7z M136.9,81.7c0.1-0.1,0.2-0.1,0.3-0.2
					c0,0,0,0,0.1,0c0,0,0,0,0.1,0c0,0,0,0.1,0,0.1c-0.2,0.8-0.3,1.5-0.3,2c0,0.1,0,0.3,0,0.4c0,0.8,0.3,1.2,0.9,1.1l0.1,0
					c0.5-0.1,1-0.5,1.4-1c0.1-0.2,0.2-0.3,0.3-0.5c0.3-0.6,0.5-1.3,0.4-2c-0.1-0.7-0.5-1.6-1.2-2.3
					C138.3,80.1,137.7,80.9,136.9,81.7z"/>
				<path class="st16" d="M140.6,83.8c0.1-0.3,0.2-0.6,0.3-0.9c1.9-2.4,3.8-4.9,5.6-7.6c0,0-0.8-2.1-3.7-5.4c0,0-0.6,0.8-1.7,2.2
					c0-3-1.2-5.8-3.7-7.8c11-6.9,15.9-23.5,1.3-27.9c6.7-8.2,0.7-22.2-15.1-14.9c-1.3-20.2-22.3-21-34.8-14.6
					c-7.5,3.9-11.3,10-11.5,16C66.6,21,57.9,25.9,53.1,34.8c-19.6-0.8-24.4,13.3-24.3,19c0,1,0.1,2,0.3,2.8c-7.3,2-12.3,9.8-10.7,18
					c-5-1.1-10.9,1.5-13.7,4.9C1.8,83,0.2,90.5,7.3,93.9c4.1,2,9.7,1.8,14.7-0.3c2,2.6,8,3.9,13,0.9c3.1,2.8,9.5,2.9,14.5-0.5
					c4.5,4.8,14.2,4.7,19.4,1c2,1.7,4.3,3,6.7,3.8c-1.7,1.8-3.3,3.5-5,5.2l0.9,1.7c0,0-4.9,5.5-14,11c0,0,7.9-2.3,23-11.2l-1.3-1.9
					c0.8-0.7,1.6-1.5,2.5-2.3c1,0.2,2,0,3.1-0.9c7.8,0,15.8-3.2,20.9-7.9c5.4,3.9,10.9,4.3,15.4,2.9c-0.7,0.7-1.3,1.4-2,2l0.9,1.7
					c0,0-4.9,5.5-14,11c0,0,7.9-2.3,23-11.2l-1.3-1.9c0.6-0.6,1.3-1.2,2-1.9c0,0,0,0,0,0c0.1,0.2,0.3,0.4,0.5,0.5
					c0.2,0.1,0.4,0.2,0.6,0.3c0.3,0.1,0.5,0.1,0.8,0.1c0.9-0.1,1.8-0.8,2.3-1.8c0.1,0,0.2,0,0.3,0c1.1-0.1,2.1-1.1,2.4-2.4
					c0.6-0.1,1.2-0.4,1.7-1c0.6-0.6,0.9-1.5,1-2.4c0.7-0.3,1.2-0.9,1.5-1.7c0.4-0.9,0.3-1.9-0.1-2.8
					C140.5,83.9,140.6,83.9,140.6,83.8z M109.9,86.9c-6.4,7.5-14.3,10.7-21.6,11.1c0.3-0.5,0.6-1.1,0.8-1.5c2-1.2,2-2.3,2.5-3.4
					c0.8-0.9,1.1-2.6,1.1-3.3c0-0.1-0.1-0.3-0.2-0.4c1.9-2.4,3.8-4.9,5.5-7.5c0,0-0.8-2.1-3.7-5.4c0,0-1.8,2.3-4.6,5.8
					c-1.4-0.9-4.1-0.5-8,0.2c-5.6-4.1-9.5-9.3-13.4-12.9c5.7-3.2,8.5-7.7,10.3-10.9c-3.5,3.5-5.7,7.4-11.7,9.6
					c-1.6-1.3-3.3-2.3-5.1-2.8c6.1,6,9.1,8.3,12.9,12.9c3.8,4.6,6.9,5.8,6.9,5.8c5.3-1.8,7.9-1.3,7.1,0c-0.8,1.4-1.5,2.3,0,3.4
					c1.5,1.1,3.9,1.9,2,4.8c0,0-1.4,0.8-4.4,0.2c0,0,1.4,1.3,3.7,1.1c0,0-0.5,3.2-5.4,1.3c0,0,0.7,1.2,2.5,1.8c0,0-0.9,2.4-4.2,0.4
					c0,0,0.6,1.1,1.3,1.6c-2.6,1-3.8,0.7-5.6-3.2c-1.8-3.9-1.2-5-1.9-6.3c-0.7,2.4-2,1.1-4.4,0.2c-1.8-0.7-12.8-6.2-18.2-9.4
					c-5.4-3.1-6.8-4.1-6.6-9c0.2-4.9,2.1-12.8,14-23c-11.3,7.2-14.6,15.5-15.3,18.9c-1.6,7.9-1.2,9.2,2.1,12.1
					c3.3,2.9,19.2,10.4,27.3,13.6c0.2,1.2,0.5,2.4,1,3.5c-2.9-1.1-5.4-2.6-7.1-4.3c-5.9,4.9-15,4.4-18.9,0.9c1-0.9,2-1.9,2.7-3.2
					c-5.1,4.2-10.9,7.2-18.2,2.6c-3.5,2-8,2.5-11.2,0.1c1.8-1,3.5-2.3,4.9-3.8c-9.6,5.9-18.8,6-22.7,1.6C0.8,84,9.3,73.2,20.5,76.9
					c-1.8-4.3-0.2-16,9-18.7c1,2.7,3.1,4.5,7.1,5.8c-9.2-5.2-6.5-16.3-0.1-22s14.2-5.3,18.1-4.7c2.7-9.1,13.6-14.1,22.8-12.1
					c0.4,3.1,1.7,6.1,4,8.6c-5.5-11.3,0.7-21.6,9.7-25.6c11.9-5.3,30.1-3.3,30.7,16.2c4.9-2.8,11.9-4.3,16,0.1
					c3.5,3.8,2.3,11.4-3.9,15.5c1.3-0.6,2.4-1.3,3.3-2.2c11.8,1.4,12.4,19.9-7.6,29.3c2.1-0.3,4.1-1,6-1.9
					c6.6,4.8,4.4,15.5-4.6,18.6c0.1-1.1,0-2.2-0.4-3.3c-0.7,13.5-15.1,17.3-23.4,10.3C108.3,89.5,109.2,88.3,109.9,86.9z M94.4,78.7
					c1.5,1.5,2,3.4,2,3.4c-1.6,2.2-3.2,4.3-4.8,6.3c-1-0.8-2.1-1.6-2.2-2.1c-0.1-0.4,0.5-1.2,0.8-2C92.7,81,94.4,78.7,94.4,78.7z
					 M134.1,93.2c-0.1,0-0.1,0-0.2,0c-0.2,0-0.3,0-0.5-0.1c0,0-0.1,0-0.1,0c-0.4-0.2-0.9-0.6-1.3-1.1c-0.3-0.4-0.4-0.8-0.4-1.3
					c0,0,0,0,0-0.1c0-0.2,0-0.4,0.1-0.6c0,0,0,0,0-0.1c0.1-0.4,0.4-0.7,0.7-0.8c0.2,0.7,0.8,1.7,2.3,2.4c0.3,0.1,0.5,0.2,0.8,0.3
					C135.2,92.6,134.7,93.1,134.1,93.2z M129.6,93.2c-0.2-0.5-0.2-1-0.1-1.5c0.1-0.3,0.1-0.5,0.3-0.7c0.2-0.4,0.5-0.6,0.7-0.6
					c0,0,0,0,0,0c-0.2,1.2,0.4,2.4,1.7,3.4c0.2,0.1,0.3,0.2,0.5,0.3c-0.3,0.6-0.8,0.9-1.2,1c-0.2,0-0.3,0-0.5,0
					c-0.2,0-0.3-0.1-0.5-0.3C130.2,94.4,129.9,93.9,129.6,93.2z M140.1,81.6c0,0.7-0.1,1.4-0.4,2c-0.1,0.2-0.2,0.3-0.3,0.5
					c-0.4,0.6-0.9,1-1.4,1l-0.1,0c-0.6,0.1-0.9-0.3-0.9-1.1c0-0.1,0-0.3,0-0.4c0-0.5,0.1-1.2,0.3-2c0,0,0-0.1,0-0.1c0,0,0,0-0.1,0
					c0,0,0,0-0.1,0c-0.1,0.1-0.2,0.1-0.3,0.2c0.8-0.8,1.4-1.6,2-2.4C139.6,80,140,80.8,140.1,81.6z M134.1,89.7
					c-0.2-0.2-0.3-0.4-0.4-0.6c-0.1-0.2-0.2-0.4-0.2-0.6c-0.2-0.7-0.1-1.4,0.3-1.8c0.4,1.2,1.7,1.9,3.5,2.1c0.3,0,0.5,0,0.7,0
					c-0.1,0.6-0.3,1.1-0.6,1.5c-0.3,0.3-0.6,0.5-1,0.5l-0.1,0c-0.2,0-0.4,0-0.7-0.1C135.2,90.6,134.6,90.2,134.1,89.7z M138.8,87.5
					c-0.2,0.1-0.4,0.2-0.7,0.2c-0.6,0.1-1.3,0-2.1-0.4c-0.5-0.2-0.9-0.6-1.2-1c-0.1-0.2-0.2-0.5-0.3-0.7c-0.1-0.3,0-0.7,0.2-0.9
					c0.2-0.2,0.5-0.4,0.8-0.4c0.1,0,0.3,0,0.4,0c0,0.6,0.2,1,0.4,1.3c0.4,0.4,0.9,0.5,1.4,0.5c0.6-0.1,1.3-0.4,1.8-0.9
					c0.2,0.6,0.1,1.1-0.1,1.6C139.5,87,139.2,87.3,138.8,87.5z M142.7,72.1c1.5,1.5,2,3.4,2,3.4c-1.3,1.7-2.5,3.3-3.8,4.9
					c-0.2-0.8-0.7-1.5-1.4-2.2c0.6-1.1,1-2.3,1.3-3.5C142,73.1,142.7,72.1,142.7,72.1z M77.1,103.7l1.3,1.5
					c-6.5,4.4-14.9,8.2-14.9,8.2c7.3-4.8,9.8-7.7,9.8-7.7l-0.8-1.9c1.8-1.7,3.6-3.5,5.4-5.4c0.7,1,1.5,1.9,2.4,2.4
					C79.2,101.9,78.1,102.8,77.1,103.7z M126.8,98.6c-6.5,4.4-14.9,8.2-14.9,8.2c7.3-4.8,9.8-7.7,9.8-7.7l-0.8-1.9
					c1.1-1,2.2-2.1,3.3-3.2c2.6-1.6,4.7-3.8,5.9-6.3c0.9-1.1,1.8-2.1,2.7-3.1c0.7-0.3,1.4-0.7,2.1-1.2c0.7-0.1,1.2-0.4,1.5-0.6
					c0,0.2-0.1,0.4-0.1,0.6c-0.2,0-0.4,0-0.6,0c-1,0.1-1.8,1-1.9,2.2c0,0.1,0,0.1,0,0.2c-0.5,0.3-0.9,0.7-1.1,1.3
					c-0.2,0.4-0.2,0.8-0.2,1.2c-0.5,0.1-1,0.5-1.3,1.1c0,0,0,0.1-0.1,0.1c-0.1,0-0.2,0-0.3,0c-0.5,0.1-0.9,0.3-1.3,0.8
					c-0.1,0.1-0.1,0.1-0.1,0.2c-0.1,0.2-0.3,0.4-0.4,0.6c-0.4,0.9-0.3,1.9,0.1,2.9c-1.2,1.1-2.3,2.1-3.3,3L126.8,98.6z"/>
				<path class="st16" d="M36.4,71.3c-2.3-5.9-0.7-10.1,2.7-12.9c-2.8-5.8-1.3-10.3,2.2-13.4c-2.3,3-3.8,9.6,0.6,14.2
					C36.4,61.5,36,66.7,36.4,71.3z"/>
				<path class="st16" d="M86.6,21.7c3.4-2.7,8.8-2.4,11.8-1.3c0.8-5.8,4.5-7.8,7.9-7.9c-4.8,1.7-6.7,4.6-6.6,11.1
					C96.2,20.2,89.6,20.4,86.6,21.7z"/>
				<path class="st16" d="M48.6,77.8c-8,1.3-10,6.5-10.5,8.1c1.9-2.6,6.1-6.6,12.4-6.7"/>
				<path class="st16" d="M106.4,61.4c-4.4-0.3-6,2.3-10.1,5.5c4.8-1.2,5.6-4.4,10.3-4.1c4.7,0.4,5.3,1.6,5.5,4.9
					C113.8,63,110.8,61.7,106.4,61.4z"/>
				<path class="st16" d="M127.5,52.3c0.6-0.1,1.1-0.2,1.6-0.1c-3.4-3-10.7,6.2-12.5,1.2c0,0-1.8,0-2.3-1.1c1.2-1.5,1.8-3.5,1.2-5.7
					c-0.4,4.3-4.4,8.7-6.9,5.6c-5.8,3.3-7.5-0.1-11-5.7c-4.2-6.7-8.6-8.7-15.8-6c4,0,6.7,0.6,8.5,1.5c-1.8,14.9,5,25,14.3,13.5
					c1.1-0.1,2.3-0.5,3.6-1.3c1.1,1.1,3.3,0.6,5-0.8c0.4,0.7,0.9,1.2,2.2,1.3c0.1,0.5,0.2,0.8,0.4,1.1
					C114.9,62.2,122.1,61.6,127.5,52.3z M125.8,52.8c-2.9,5.5-9,7.9-8.8,3.6C120.5,57,122.6,54.2,125.8,52.8z M92.5,43.5
					c1.3,1.2,2.1,2.7,3.1,4.1c1.7,2.4,3.5,7.1,7.3,7.9C95.6,63.8,90.9,52.9,92.5,43.5z"/>
				<path class="st16" d="M106.2,65.3c1.4-0.2,2,0.1,2.5,0.4C108.7,64.8,107.7,64.2,106.2,65.3z"/>
				<g>
					
						<linearGradient id="SVGID_17_" gradientUnits="userSpaceOnUse" x1="127.1161" y1="79.4827" x2="138.6708" y2="104.385" gradientTransform="matrix(0.9511 -7.190000e-02 -0.1177 0.9766 10.6164 4.8282)">
						<stop  offset="1.886790e-03" style="stop-color:#FFFF00"/>
						<stop  offset="1" style="stop-color:#FF7300"/>
					</linearGradient>
					<path class="st17" d="M140.7,74.8c1.3-1.6,2-2.6,2-2.6c1.5,1.5,2,3.4,2,3.4c-1.3,1.7-2.5,3.3-3.8,4.9c-0.2-0.8-0.7-1.5-1.4-2.2
						C140.1,77.1,140.5,75.9,140.7,74.8z M128.8,94.1c-0.4-1-0.5-2-0.1-2.9c0.1-0.2,0.2-0.5,0.4-0.6c0-0.1,0.1-0.1,0.1-0.2
						c0.4-0.5,0.9-0.7,1.3-0.8c0.1,0,0.2,0,0.3,0c0,0,0-0.1,0.1-0.1c0.3-0.6,0.8-1,1.3-1.1c0-0.4,0.1-0.8,0.2-1.2
						c0.3-0.6,0.7-1.1,1.1-1.3c0-0.1,0-0.1,0-0.2c0.1-1.2,0.9-2,1.9-2.2c0.2,0,0.4,0,0.6,0c0-0.2,0.1-0.4,0.1-0.6
						c-0.3,0.2-0.7,0.5-1.5,0.6c-0.6,0.4-1.3,0.8-2.1,1.2c-0.9,1-1.8,2.1-2.7,3.1c-1.2,2.5-3.2,4.7-5.9,6.3
						c-1.1,1.1-2.2,2.2-3.3,3.2l0.8,1.9c0,0-2.4,2.9-9.8,7.7c0,0,8.4-3.7,14.9-8.2l-1.3-1.5C126.6,96.2,127.7,95.2,128.8,94.1z"/>
					
						<linearGradient id="SVGID_18_" gradientUnits="userSpaceOnUse" x1="79.1999" y1="82.8217" x2="88.9616" y2="112.107" gradientTransform="matrix(0.9511 -7.190000e-02 -0.1177 0.9766 10.6164 4.8282)">
						<stop  offset="1.886790e-03" style="stop-color:#FFFF00"/>
						<stop  offset="1" style="stop-color:#FF7300"/>
					</linearGradient>
					<path class="st18" d="M90,84.3c2.7-3.3,4.3-5.6,4.3-5.6c1.5,1.5,2,3.4,2,3.4c-1.6,2.2-3.2,4.3-4.8,6.3c-1-0.8-2.1-1.6-2.2-2.1
						C89.1,86,89.7,85.1,90,84.3z M77.9,98.4c-1.8,1.9-3.6,3.7-5.4,5.4l0.8,1.9c0,0-2.4,2.9-9.8,7.7c0,0,8.4-3.7,14.9-8.2l-1.3-1.5
						c1-0.9,2.1-1.8,3.2-2.9C79.4,100.3,78.6,99.5,77.9,98.4z"/>
				</g>
			</g>
		</g>
		<g class="st19">
			<g>
				<radialGradient id="SVGID_19_" cx="108.729" cy="35.7774" r="89.7087" gradientUnits="userSpaceOnUse">
					<stop  offset="0" style="stop-color:#FFFFFF"/>
					<stop  offset="0.3975" style="stop-color:#A0B6CE;stop-opacity:0.6022"/>
					<stop  offset="0.8119" style="stop-color:#426E9D;stop-opacity:0.1875"/>
					<stop  offset="0.9992" style="stop-color:#1D518A;stop-opacity:0"/>
				</radialGradient>
				<path class="st20" d="M57.1,119c-0.9,0.1-1.7-0.5-1.9-1.3c-0.3-1,0.3-2.3,1.4-2.9c6-3.6,10.1-7.2,12.1-9.1l-0.1-0.2
					c-0.5-0.9-0.2-2.1,0.6-2.9c0.8-0.8,1.7-1.7,2.6-2.7c-1.2-0.6-2.3-1.3-3.4-2.1c-2.2,1.2-4.9,2-7.8,2.2c-4.6,0.3-8.9-0.8-11.8-3.1
					c-2.1,1.1-4.4,1.8-6.8,2c-2.9,0.2-5.6-0.4-7.6-1.7c-1.6,0.7-3.3,1.2-5,1.3c-3.3,0.2-6.4-0.6-8.3-2.2c-2,0.7-4,1.1-6,1.3
					C11.7,97.8,8.6,97.3,6,96c-4.5-2.2-5.7-5.7-6-8.2c-0.3-3.3,0.8-6.9,3-9.5c2.8-3.4,7.6-5.8,12.2-6.2c0.2,0,0.4,0,0.5,0
					c0-3.6,1-7.2,3.1-10.3c1.9-2.9,4.6-5.2,7.7-6.5c0-0.3,0-0.6,0-0.9c-0.1-3.5,1.4-9.3,5.7-14c2.8-3.1,8.1-7,16.9-7.7
					c0.9-0.1,1.9-0.1,2.9-0.1c4.5-7.3,11.3-11.6,19.3-12.2c1.3-0.1,2.7-0.1,4,0c1.3-6.2,5.9-11.8,12.7-15.4c4-2.1,8.8-3.5,13.5-3.8
					c10.4-0.8,21.9,3.4,24,17.3c1.9-0.6,3.6-1,5.3-1.2c5.7-0.4,10.2,2.2,12,7c1.3,3.5,0.9,7.4-0.9,10.8c5.3,2.4,8.1,6.8,8,12.4
					c-0.2,6-3.8,12.5-9.2,16.9c0.8,1,1.4,2.1,1.8,3.3c0.1,0,0.2,0,0.2,0c0.1,0,0.1,0,0.2,0c0.6,0,1.1,0.2,1.5,0.6
					c3,3.4,4,5.7,4.1,5.9c0.3,0.7,0.1,1.5-0.3,2.2c-1.6,2.4-3.4,4.9-5.4,7.3c0.3,1.2,0.2,2.5-0.3,3.7c-0.4,0.9-0.9,1.6-1.6,2.2
					c-0.3,1-0.8,1.9-1.5,2.6c-0.5,0.6-1.1,1-1.7,1.4c-0.7,1.3-1.9,2.2-3.1,2.7c-0.9,1.1-2.2,1.8-3.5,2c-0.1,0-0.2,0-0.3,0
					c0,0,0,0,0,0c0,0.3,0,0.6-0.1,0.9c-0.2,0.7-0.7,1.3-1.3,1.6c-15.2,9-23.3,11.4-23.6,11.5c-0.2,0-0.3,0.1-0.5,0.1
					c-0.9,0.1-1.7-0.5-1.9-1.3c-0.3-1,0.3-2.3,1.4-2.9c6-3.6,10.1-7.2,12.1-9.1l-0.1-0.2c-0.1-0.1-0.1-0.3-0.2-0.4
					c-3.9,0.2-7.8-0.8-11.4-3.1c-5.1,4-12,6.7-18.8,7.2c-0.5,0-1.1,0.1-1.6,0.1c-0.9,0.5-1.8,0.9-2.8,0.9c0,0-0.1,0-0.1,0l0.2,0.3
					c0.3,0.5,0.4,1.2,0.2,1.8c-0.2,0.7-0.7,1.3-1.3,1.6c-15.2,9-23.3,11.4-23.6,11.5C57.4,118.9,57.2,119,57.1,119z"/>
				<g>
					<defs>
						<path id="XMLID_7_" d="M130.7,80.5c0.3,1.1,0.5,2.2,0.4,3.3c9-3.1,11.2-13.7,4.6-18.6c-1.9,1-3.9,1.6-6,1.9
							c20-9.3,19.4-27.8,7.6-29.3c-0.9,0.8-2.1,1.6-3.3,2.2c6.1-4.2,7.4-11.7,3.9-15.5c-4-4.4-11.1-2.9-16-0.1
							C121.2,4.9,103,2.9,91.1,8.2c-9,4-15.2,14.3-9.7,25.6c-2.3-2.5-3.7-5.5-4-8.6c-9.2-2-20.1,3-22.8,12.1
							c-3.9-0.6-11.7-1.1-18.1,4.7s-9.1,16.9,0.1,22c-4-1.3-6.1-3.1-7.1-5.8c-9.1,2.8-10.8,14.4-9,18.7C9.3,73.2,0.8,84,6.4,90.5
							c3.9,4.5,13,4.3,22.7-1.6c-1.4,1.5-3.1,2.8-4.9,3.8c3.2,2.4,7.7,1.9,11.2-0.1c7.3,4.5,13.1,1.6,18.2-2.6
							c-0.8,1.2-1.7,2.3-2.7,3.2c4,3.4,13.1,4,18.9-0.9c1.8,1.7,4.2,3.2,7.1,4.3c-0.5-1.1-0.8-2.3-1-3.5
							C69.5,90.2,52.4,82.1,49,79.2c-3.3-2.9-3.7-4.1-2.6-12c0.5-4.2,3.9-11.7,15.3-18.9c-11.9,10.3-13.8,18.1-14,23
							c-0.2,4.9,1.2,5.8,6.6,9c5.4,3.1,16.4,8.7,18.2,9.4c2.4,0.9,3.7,2.2,4.4-0.2c0.6,1.2,0.1,2.4,1.9,6.3c1.8,3.9,3,4.2,5.6,3.2
							c-0.7-0.6-1.3-1.6-1.3-1.6c3.3,1.9,4.2-0.4,4.2-0.4c-1.8-0.6-2.5-1.8-2.5-1.8c4.9,2,5.4-1.3,5.4-1.3c-2.3,0.2-3.7-1.1-3.7-1.1
							c2.9,0.6,4.4-0.2,4.4-0.2c1.9-2.9-0.5-3.7-2-4.8c-1.5-1.1-0.8-2.1,0-3.4c0.8-1.4-1.8-1.8-7.1,0c0,0-3.1-1.2-6.9-5.8
							c-3.8-4.6-6.8-6.9-12.9-12.9c1.8,0.5,3.5,1.5,5.1,2.8c6-2.3,8.2-6.1,11.7-9.6c-1.8,3.2-4.5,7.7-10.3,10.9
							c3.9,3.6,7.8,8.8,13.4,12.9c3.9-0.7,6.7-1.2,8-0.2c2.8-3.5,4.6-5.8,4.6-5.8c2.9,3.3,3.7,5.4,3.7,5.4c-1.7,2.7-3.6,5.2-5.5,7.5
							c0.1,0.2,0.2,0.3,0.2,0.4c0,0.7-0.3,2.4-1.1,3.3c-0.6,1.1-0.6,2.3-2.5,3.4c-0.2,0.5-0.5,1-0.8,1.5c7.3-0.4,15.2-3.6,21.6-11.1
							c-0.7,1.3-1.6,2.6-2.6,3.8C115.6,97.7,130.1,94,130.7,80.5z M106.2,65.3c1.5-1.1,2.6-0.5,2.5,0.4
							C108.2,65.4,107.6,65.1,106.2,65.3z M112.2,67.6c-0.2-3.2-0.8-4.5-5.5-4.9c-4.7-0.4-5.5,2.9-10.3,4.1
							c4.1-3.1,5.7-5.8,10.1-5.5C110.8,61.7,113.8,63,112.2,67.6z M115.9,55.8c-0.2-0.3-0.3-0.6-0.4-1.1c-1.3-0.1-1.9-0.6-2.2-1.3
							c-1.7,1.4-3.9,1.9-5,0.8c-1.3,0.8-2.5,1.2-3.6,1.3C95.4,67,88.6,57,90.4,42c-1.9-0.9-4.5-1.5-8.5-1.5c7.1-2.7,11.6-0.7,15.8,6
							c3.5,5.6,5.2,9,11,5.7c2.4,3,6.5-1.3,6.9-5.6c0.6,2.3-0.1,4.3-1.2,5.7c0.5,1.1,2.3,1.1,2.3,1.1c1.7,4.9,9.1-4.2,12.5-1.2
							c-0.5-0.1-1-0.1-1.6,0.1C122.1,61.6,114.9,62.2,115.9,55.8z"/>
					</defs>
					<clipPath id="XMLID_3_">
						<use xlink:href="#XMLID_7_"  style="overflow:visible;"/>
					</clipPath>
					<radialGradient id="SVGID_20_" cx="108.729" cy="35.7774" r="89.7087" gradientUnits="userSpaceOnUse">
						<stop  offset="0" style="stop-color:#FFFFFF"/>
						<stop  offset="0.3975" style="stop-color:#A0B6CE;stop-opacity:0.6022"/>
						<stop  offset="0.8119" style="stop-color:#426E9D;stop-opacity:0.1875"/>
						<stop  offset="0.9992" style="stop-color:#1D518A;stop-opacity:0"/>
					</radialGradient>
					<polygon class="st21" points="143.7,98 -2.8,109.1 9.4,8.1 155.9,-3 					"/>
					<radialGradient id="SVGID_21_" cx="108.729" cy="35.7774" r="89.7087" gradientUnits="userSpaceOnUse">
						<stop  offset="0" style="stop-color:#FFFFFF"/>
						<stop  offset="0.3975" style="stop-color:#A0B6CE;stop-opacity:0.6022"/>
						<stop  offset="0.8119" style="stop-color:#426E9D;stop-opacity:0.1875"/>
						<stop  offset="0.9992" style="stop-color:#1D518A;stop-opacity:0"/>
					</radialGradient>
					<path class="st22" d="M130.8,81.7c3.6-0.3,7.4-3.4,8.7-9.3l0.7-0.1c-0.7,5.9-2.3,9.7-9.8,12.3"/>
					<radialGradient id="SVGID_22_" cx="108.729" cy="35.7774" r="89.7087" gradientUnits="userSpaceOnUse">
						<stop  offset="0" style="stop-color:#FFFFFF"/>
						<stop  offset="0.3975" style="stop-color:#A0B6CE;stop-opacity:0.6022"/>
						<stop  offset="0.8119" style="stop-color:#426E9D;stop-opacity:0.1875"/>
						<stop  offset="0.9992" style="stop-color:#1D518A;stop-opacity:0"/>
					</radialGradient>
					<path class="st23" d="M31.8,60.3c-7.2,3-10.6,12.1-7.5,18.6c-10.7-2.6-17.9,0.8-19.7,6.6l-1-0.3c0.8-8.4,10.3-11.5,15.6-9.7
						c-0.5-10.2,2.6-15.4,10.9-18.3"/>
					<radialGradient id="SVGID_23_" cx="108.729" cy="35.7774" r="89.7087" gradientUnits="userSpaceOnUse">
						<stop  offset="0" style="stop-color:#FFFFFF"/>
						<stop  offset="0.3975" style="stop-color:#A0B6CE;stop-opacity:0.6022"/>
						<stop  offset="0.8119" style="stop-color:#426E9D;stop-opacity:0.1875"/>
						<stop  offset="0.9992" style="stop-color:#1D518A;stop-opacity:0"/>
					</radialGradient>
					<path class="st24" d="M61.9,65.6c3.4,4.7,6.8,6.8,9.3,10c2.1,2.7,4.6,5,4.4,8.3c1-1.7,2.6-1.5,5.7,1.7c3.6-2.3,5.9-2.4,7.5-2.2
						l0.1-0.8L82,83.1c0,0-2.2-0.5-4.1-2.6C72.5,74.4,65.1,67.4,61.9,65.6z"/>
					<radialGradient id="SVGID_24_" cx="108.729" cy="35.7774" r="89.7087" gradientUnits="userSpaceOnUse">
						<stop  offset="0" style="stop-color:#FFFFFF"/>
						<stop  offset="0.3975" style="stop-color:#A0B6CE;stop-opacity:0.6022"/>
						<stop  offset="0.8119" style="stop-color:#426E9D;stop-opacity:0.1875"/>
						<stop  offset="0.9992" style="stop-color:#1D518A;stop-opacity:0"/>
					</radialGradient>
					<path class="st25" d="M96.4,66.8c3.1-2.2,5.1-5.7,8-6.1c3.9-0.6,6.9,0.8,7.8,1.9c0.9,1.1,0.7,3.3-0.1,5
						c0.4-3.2-0.5-4.8-3.3-5.3c-2.8-0.5-5.1-0.7-6.8,0.8C100.4,64.6,97.7,66.7,96.4,66.8z"/>
					<radialGradient id="SVGID_25_" cx="108.729" cy="35.7774" r="89.7087" gradientUnits="userSpaceOnUse">
						<stop  offset="0" style="stop-color:#FFFFFF"/>
						<stop  offset="0.3975" style="stop-color:#A0B6CE;stop-opacity:0.6022"/>
						<stop  offset="0.8119" style="stop-color:#426E9D;stop-opacity:0.1875"/>
						<stop  offset="0.9992" style="stop-color:#1D518A;stop-opacity:0"/>
					</radialGradient>
					<path class="st26" d="M81.9,40.5c7.7-4.2,12.9-1.5,16.8,4.4c4.4,6.8,6.7,8.7,11.2,5.6c0.9,2.2,4.1,1.5,5.8-3.9
						c0.3,4-2.6,8.3-6.7,7c-5.4,0.8-8.8,1-12.4-6.4C92.8,39.7,86.2,38.8,81.9,40.5z"/>
					<radialGradient id="SVGID_26_" cx="108.729" cy="35.7774" r="89.7087" gradientUnits="userSpaceOnUse">
						<stop  offset="0" style="stop-color:#FFFFFF"/>
						<stop  offset="0.3975" style="stop-color:#A0B6CE;stop-opacity:0.6022"/>
						<stop  offset="0.8119" style="stop-color:#426E9D;stop-opacity:0.1875"/>
						<stop  offset="0.9992" style="stop-color:#1D518A;stop-opacity:0"/>
					</radialGradient>
					<path class="st27" d="M78.6,29.5c-2.3-2.7-16.8-4.6-23.3,8.9c-12.5-1.2-22.1,4-24.5,13.9c-0.3-4.1,4.6-17.3,22.8-16.3
						c9.2-12.5,16.7-13.2,24.9-11.4L78.6,29.5z"/>
					<radialGradient id="SVGID_27_" cx="108.729" cy="35.7774" r="89.7087" gradientUnits="userSpaceOnUse">
						<stop  offset="0" style="stop-color:#FFFFFF"/>
						<stop  offset="0.3975" style="stop-color:#A0B6CE;stop-opacity:0.6022"/>
						<stop  offset="0.8119" style="stop-color:#426E9D;stop-opacity:0.1875"/>
						<stop  offset="0.9992" style="stop-color:#1D518A;stop-opacity:0"/>
					</radialGradient>
					<path class="st28" d="M114.8,53.3c1.1,0,2-0.7,2.1-1.9c1,5.7,10.1-2.9,12.2,0.8c-2-0.7-4.6,0.7-8.3,2.6c-3.7,2-4.5-0.1-5-0.9"
						/>
					<radialGradient id="SVGID_28_" cx="108.729" cy="35.7774" r="89.7087" gradientUnits="userSpaceOnUse">
						<stop  offset="0" style="stop-color:#FFFFFF"/>
						<stop  offset="0.3975" style="stop-color:#A0B6CE;stop-opacity:0.6022"/>
						<stop  offset="0.8119" style="stop-color:#426E9D;stop-opacity:0.1875"/>
						<stop  offset="0.9992" style="stop-color:#1D518A;stop-opacity:0"/>
					</radialGradient>
					<path class="st29" d="M136.3,38.6c8.7,2.2,13.2,14.1-1.6,25.7c5.9-3.1,10.9-8.4,11.6-15.2c0.7-6.8-2.1-10.8-8.6-12"/>
					<radialGradient id="SVGID_29_" cx="108.729" cy="35.7774" r="89.7087" gradientUnits="userSpaceOnUse">
						<stop  offset="0" style="stop-color:#FFFFFF"/>
						<stop  offset="0.3975" style="stop-color:#A0B6CE;stop-opacity:0.6022"/>
						<stop  offset="0.8119" style="stop-color:#426E9D;stop-opacity:0.1875"/>
						<stop  offset="0.9992" style="stop-color:#1D518A;stop-opacity:0"/>
					</radialGradient>
					<path class="st30" d="M85.7,11.7c5.6-4.9,21.7-6.1,27.8,0.2c0,0-2.8-0.9-7.2-0.5c10.7,1.2,14.2,10.2,13.8,16.2
						c9.2-6.5,18-4.5,19.6,1.9l1.1-0.1c0,0-2.1-14-17.7-6.5c-0.8-10.3-6-15.1-15.7-18.2S87.1,10.4,85.7,11.7z"/>
					<radialGradient id="SVGID_30_" cx="108.729" cy="35.7774" r="89.7087" gradientUnits="userSpaceOnUse">
						<stop  offset="0" style="stop-color:#FFFFFF"/>
						<stop  offset="0.3975" style="stop-color:#A0B6CE;stop-opacity:0.6022"/>
						<stop  offset="0.8119" style="stop-color:#426E9D;stop-opacity:0.1875"/>
						<stop  offset="0.9992" style="stop-color:#1D518A;stop-opacity:0"/>
					</radialGradient>
					<path class="st31" d="M54.1,54.3c-5.9,5.6-7.9,8.8-9,13.5c-1.2,5-2,8.8,0.5,11.3c2.9,3,12.2,7.2,14.7,8.9
						c2.5,1.7,2.9,7.1-5.4,7.9c4.1,1.4,10,1,14.8-2.1l7,3.9L78,97l-1.4-5.1c0,0-18.4-6.4-26.1-12.1C42.9,74.1,47,63.8,54.1,54.3z"/>
					<radialGradient id="SVGID_31_" cx="108.729" cy="35.7774" r="89.7087" gradientUnits="userSpaceOnUse">
						<stop  offset="0" style="stop-color:#FFFFFF"/>
						<stop  offset="0.3975" style="stop-color:#A0B6CE;stop-opacity:0.6022"/>
						<stop  offset="0.8119" style="stop-color:#426E9D;stop-opacity:0.1875"/>
						<stop  offset="0.9992" style="stop-color:#1D518A;stop-opacity:0"/>
					</radialGradient>
					<path class="st32" d="M78.3,59.1c-1.6,4.4-4.9,8.5-7.1,10.2c5.4,8.1,10.3,11.7,11.2,12.1s5.8-1.6,7.4,0.9l-0.2,0.8
						c0,0-2.9-1.2-7.1,0.3c0,0-7.4-5-12-10.7L67,69.2C67,69.2,73.7,66.2,78.3,59.1z"/>
				</g>
				<radialGradient id="SVGID_32_" cx="108.729" cy="35.7774" r="89.7087" gradientUnits="userSpaceOnUse">
					<stop  offset="0" style="stop-color:#FFFFFF"/>
					<stop  offset="0.3975" style="stop-color:#A0B6CE;stop-opacity:0.6022"/>
					<stop  offset="0.8119" style="stop-color:#426E9D;stop-opacity:0.1875"/>
					<stop  offset="0.9992" style="stop-color:#1D518A;stop-opacity:0"/>
				</radialGradient>
				<path class="st33" d="M102.9,55.5c-3.8-0.8-5.6-5.4-7.3-7.9c-1-1.4-1.8-2.9-3.1-4.1C90.9,52.9,95.6,63.8,102.9,55.5z"/>
				<radialGradient id="SVGID_33_" cx="108.729" cy="35.7774" r="89.7087" gradientUnits="userSpaceOnUse">
					<stop  offset="0" style="stop-color:#FFFFFF"/>
					<stop  offset="0.3975" style="stop-color:#A0B6CE;stop-opacity:0.6022"/>
					<stop  offset="0.8119" style="stop-color:#426E9D;stop-opacity:0.1875"/>
					<stop  offset="0.9992" style="stop-color:#1D518A;stop-opacity:0"/>
				</radialGradient>
				<path class="st34" d="M116.7,55.9c-0.9,6.1,6.4,3.2,9.1-3.1C122.6,54.2,118.7,56.7,116.7,55.9z"/>
				<radialGradient id="SVGID_34_" cx="108.729" cy="35.7774" r="89.7087" gradientUnits="userSpaceOnUse">
					<stop  offset="0" style="stop-color:#FFFFFF"/>
					<stop  offset="0.3975" style="stop-color:#A0B6CE;stop-opacity:0.6022"/>
					<stop  offset="0.8119" style="stop-color:#426E9D;stop-opacity:0.1875"/>
					<stop  offset="0.9992" style="stop-color:#1D518A;stop-opacity:0"/>
				</radialGradient>
				<path class="st35" d="M139.7,86.7c-0.2,0.4-0.5,0.6-0.8,0.8c-0.2,0.1-0.4,0.2-0.7,0.2c-0.6,0.1-1.3,0-2.1-0.4
					c-0.5-0.2-0.9-0.6-1.2-1c-0.1-0.2-0.2-0.5-0.3-0.7c-0.1-0.3,0-0.7,0.2-0.9c0.2-0.2,0.5-0.4,0.8-0.4c0.1,0,0.3,0,0.4,0
					c0,0.6,0.2,1,0.4,1.3c0.4,0.4,0.9,0.5,1.4,0.5c0.6-0.1,1.3-0.4,1.8-0.9C139.9,85.7,139.9,86.2,139.7,86.7z M135.7,90.7
					c0.2,0.1,0.5,0.1,0.7,0.1l0.1,0c0.4-0.1,0.7-0.2,1-0.5c0.3-0.4,0.5-0.9,0.6-1.5c-0.2,0-0.5,0-0.7,0c-1.8-0.2-3.1-0.9-3.5-2.1
					c-0.4,0.4-0.5,1.1-0.3,1.8c0.1,0.2,0.1,0.4,0.2,0.6c0.1,0.2,0.2,0.4,0.4,0.6C134.6,90.2,135.2,90.6,135.7,90.7z M134.7,91.6
					c-1.5-0.8-2.1-1.7-2.3-2.4c-0.3,0.1-0.6,0.4-0.7,0.8c0,0,0,0,0,0.1c-0.1,0.2-0.1,0.4-0.1,0.6c0,0,0,0.1,0,0.1
					c0,0.5,0.2,0.9,0.4,1.3c0.4,0.6,0.8,0.9,1.3,1.1c0,0,0.1,0,0.1,0c0.2,0.1,0.4,0.1,0.5,0.1c0.1,0,0.1,0,0.2,0
					c0.6-0.1,1.1-0.6,1.3-1.4C135.2,91.8,134.9,91.7,134.7,91.6z M130.6,94.7c0.2,0.1,0.3,0.2,0.5,0.3c0.2,0,0.3,0.1,0.5,0
					c0.5-0.1,0.9-0.4,1.2-1c-0.2-0.1-0.3-0.2-0.5-0.3c-1.3-0.9-1.9-2.1-1.7-3.4c0,0,0,0,0,0c-0.3,0-0.5,0.3-0.7,0.6
					c-0.1,0.2-0.2,0.4-0.3,0.7c-0.1,0.5-0.1,1,0.1,1.5C129.9,93.9,130.2,94.4,130.6,94.7z M136.9,81.7c0.1-0.1,0.2-0.1,0.3-0.2
					c0,0,0,0,0.1,0c0,0,0,0,0.1,0c0,0,0,0.1,0,0.1c-0.2,0.8-0.3,1.5-0.3,2c0,0.1,0,0.3,0,0.4c0,0.8,0.3,1.2,0.9,1.1l0.1,0
					c0.5-0.1,1-0.5,1.4-1c0.1-0.2,0.2-0.3,0.3-0.5c0.3-0.6,0.5-1.3,0.4-2c-0.1-0.7-0.5-1.6-1.2-2.3
					C138.3,80.1,137.7,80.9,136.9,81.7z"/>
				<radialGradient id="SVGID_35_" cx="108.729" cy="35.7774" r="89.7087" gradientUnits="userSpaceOnUse">
					<stop  offset="0" style="stop-color:#FFFFFF"/>
					<stop  offset="0.3975" style="stop-color:#A0B6CE;stop-opacity:0.6022"/>
					<stop  offset="0.8119" style="stop-color:#426E9D;stop-opacity:0.1875"/>
					<stop  offset="0.9992" style="stop-color:#1D518A;stop-opacity:0"/>
				</radialGradient>
				<path class="st36" d="M140.6,83.8c0.1-0.3,0.2-0.6,0.3-0.9c1.9-2.4,3.8-4.9,5.6-7.6c0,0-0.8-2.1-3.7-5.4c0,0-0.6,0.8-1.7,2.2
					c0-3-1.2-5.8-3.7-7.8c11-6.9,15.9-23.5,1.3-27.9c6.7-8.2,0.7-22.2-15.1-14.9c-1.3-20.2-22.3-21-34.8-14.6
					c-7.5,3.9-11.3,10-11.5,16C66.6,21,57.9,25.9,53.1,34.8c-19.6-0.8-24.4,13.3-24.3,19c0,1,0.1,2,0.3,2.8c-7.3,2-12.3,9.8-10.7,18
					c-5-1.1-10.9,1.5-13.7,4.9C1.8,83,0.2,90.5,7.3,93.9c4.1,2,9.7,1.8,14.7-0.3c2,2.6,8,3.9,13,0.9c3.1,2.8,9.5,2.9,14.5-0.5
					c4.5,4.8,14.2,4.7,19.4,1c2,1.7,4.3,3,6.7,3.8c-1.7,1.8-3.3,3.5-5,5.2l0.9,1.7c0,0-4.9,5.5-14,11c0,0,7.9-2.3,23-11.2l-1.3-1.9
					c0.8-0.7,1.6-1.5,2.5-2.3c1,0.2,2,0,3.1-0.9c7.8,0,15.8-3.2,20.9-7.9c5.4,3.9,10.9,4.3,15.4,2.9c-0.7,0.7-1.3,1.4-2,2l0.9,1.7
					c0,0-4.9,5.5-14,11c0,0,7.9-2.3,23-11.2l-1.3-1.9c0.6-0.6,1.3-1.2,2-1.9c0,0,0,0,0,0c0.1,0.2,0.3,0.4,0.5,0.5
					c0.2,0.1,0.4,0.2,0.6,0.3c0.3,0.1,0.5,0.1,0.8,0.1c0.9-0.1,1.8-0.8,2.3-1.8c0.1,0,0.2,0,0.3,0c1.1-0.1,2.1-1.1,2.4-2.4
					c0.6-0.1,1.2-0.4,1.7-1c0.6-0.6,0.9-1.5,1-2.4c0.7-0.3,1.2-0.9,1.5-1.7c0.4-0.9,0.3-1.9-0.1-2.8
					C140.5,83.9,140.6,83.9,140.6,83.8z M109.9,86.9c-6.4,7.5-14.3,10.7-21.6,11.1c0.3-0.5,0.6-1.1,0.8-1.5c2-1.2,2-2.3,2.5-3.4
					c0.8-0.9,1.1-2.6,1.1-3.3c0-0.1-0.1-0.3-0.2-0.4c1.9-2.4,3.8-4.9,5.5-7.5c0,0-0.8-2.1-3.7-5.4c0,0-1.8,2.3-4.6,5.8
					c-1.4-0.9-4.1-0.5-8,0.2c-5.6-4.1-9.5-9.3-13.4-12.9c5.7-3.2,8.5-7.7,10.3-10.9c-3.5,3.5-5.7,7.4-11.7,9.6
					c-1.6-1.3-3.3-2.3-5.1-2.8c6.1,6,9.1,8.3,12.9,12.9c3.8,4.6,6.9,5.8,6.9,5.8c5.3-1.8,7.9-1.3,7.1,0c-0.8,1.4-1.5,2.3,0,3.4
					c1.5,1.1,3.9,1.9,2,4.8c0,0-1.4,0.8-4.4,0.2c0,0,1.4,1.3,3.7,1.1c0,0-0.5,3.2-5.4,1.3c0,0,0.7,1.2,2.5,1.8c0,0-0.9,2.4-4.2,0.4
					c0,0,0.6,1.1,1.3,1.6c-2.6,1-3.8,0.7-5.6-3.2c-1.8-3.9-1.2-5-1.9-6.3c-0.7,2.4-2,1.1-4.4,0.2c-1.8-0.7-12.8-6.2-18.2-9.4
					c-5.4-3.1-6.8-4.1-6.6-9c0.2-4.9,2.1-12.8,14-23c-11.3,7.2-14.6,15.5-15.3,18.9c-1.6,7.9-1.2,9.2,2.1,12.1
					c3.3,2.9,19.2,10.4,27.3,13.6c0.2,1.2,0.5,2.4,1,3.5c-2.9-1.1-5.4-2.6-7.1-4.3c-5.9,4.9-15,4.4-18.9,0.9c1-0.9,2-1.9,2.7-3.2
					c-5.1,4.2-10.9,7.2-18.2,2.6c-3.5,2-8,2.5-11.2,0.1c1.8-1,3.5-2.3,4.9-3.8c-9.6,5.9-18.8,6-22.7,1.6C0.8,84,9.3,73.2,20.5,76.9
					c-1.8-4.3-0.2-16,9-18.7c1,2.7,3.1,4.5,7.1,5.8c-9.2-5.2-6.5-16.3-0.1-22s14.2-5.3,18.1-4.7c2.7-9.1,13.6-14.1,22.8-12.1
					c0.4,3.1,1.7,6.1,4,8.6c-5.5-11.3,0.7-21.6,9.7-25.6c11.9-5.3,30.1-3.3,30.7,16.2c4.9-2.8,11.9-4.3,16,0.1
					c3.5,3.8,2.3,11.4-3.9,15.5c1.3-0.6,2.4-1.3,3.3-2.2c11.8,1.4,12.4,19.9-7.6,29.3c2.1-0.3,4.1-1,6-1.9
					c6.6,4.8,4.4,15.5-4.6,18.6c0.1-1.1,0-2.2-0.4-3.3c-0.7,13.5-15.1,17.3-23.4,10.3C108.3,89.5,109.2,88.3,109.9,86.9z M94.4,78.7
					c1.5,1.5,2,3.4,2,3.4c-1.6,2.2-3.2,4.3-4.8,6.3c-1-0.8-2.1-1.6-2.2-2.1c-0.1-0.4,0.5-1.2,0.8-2C92.7,81,94.4,78.7,94.4,78.7z
					 M134.1,93.2c-0.1,0-0.1,0-0.2,0c-0.2,0-0.3,0-0.5-0.1c0,0-0.1,0-0.1,0c-0.4-0.2-0.9-0.6-1.3-1.1c-0.3-0.4-0.4-0.8-0.4-1.3
					c0,0,0,0,0-0.1c0-0.2,0-0.4,0.1-0.6c0,0,0,0,0-0.1c0.1-0.4,0.4-0.7,0.7-0.8c0.2,0.7,0.8,1.7,2.3,2.4c0.3,0.1,0.5,0.2,0.8,0.3
					C135.2,92.6,134.7,93.1,134.1,93.2z M129.6,93.2c-0.2-0.5-0.2-1-0.1-1.5c0.1-0.3,0.1-0.5,0.3-0.7c0.2-0.4,0.5-0.6,0.7-0.6
					c0,0,0,0,0,0c-0.2,1.2,0.4,2.4,1.7,3.4c0.2,0.1,0.3,0.2,0.5,0.3c-0.3,0.6-0.8,0.9-1.2,1c-0.2,0-0.3,0-0.5,0
					c-0.2,0-0.3-0.1-0.5-0.3C130.2,94.4,129.9,93.9,129.6,93.2z M140.1,81.6c0,0.7-0.1,1.4-0.4,2c-0.1,0.2-0.2,0.3-0.3,0.5
					c-0.4,0.6-0.9,1-1.4,1l-0.1,0c-0.6,0.1-0.9-0.3-0.9-1.1c0-0.1,0-0.3,0-0.4c0-0.5,0.1-1.2,0.3-2c0,0,0-0.1,0-0.1c0,0,0,0-0.1,0
					c0,0,0,0-0.1,0c-0.1,0.1-0.2,0.1-0.3,0.2c0.8-0.8,1.4-1.6,2-2.4C139.6,80,140,80.8,140.1,81.6z M134.1,89.7
					c-0.2-0.2-0.3-0.4-0.4-0.6c-0.1-0.2-0.2-0.4-0.2-0.6c-0.2-0.7-0.1-1.4,0.3-1.8c0.4,1.2,1.7,1.9,3.5,2.1c0.3,0,0.5,0,0.7,0
					c-0.1,0.6-0.3,1.1-0.6,1.5c-0.3,0.3-0.6,0.5-1,0.5l-0.1,0c-0.2,0-0.4,0-0.7-0.1C135.2,90.6,134.6,90.2,134.1,89.7z M138.8,87.5
					c-0.2,0.1-0.4,0.2-0.7,0.2c-0.6,0.1-1.3,0-2.1-0.4c-0.5-0.2-0.9-0.6-1.2-1c-0.1-0.2-0.2-0.5-0.3-0.7c-0.1-0.3,0-0.7,0.2-0.9
					c0.2-0.2,0.5-0.4,0.8-0.4c0.1,0,0.3,0,0.4,0c0,0.6,0.2,1,0.4,1.3c0.4,0.4,0.9,0.5,1.4,0.5c0.6-0.1,1.3-0.4,1.8-0.9
					c0.2,0.6,0.1,1.1-0.1,1.6C139.5,87,139.2,87.3,138.8,87.5z M142.7,72.1c1.5,1.5,2,3.4,2,3.4c-1.3,1.7-2.5,3.3-3.8,4.9
					c-0.2-0.8-0.7-1.5-1.4-2.2c0.6-1.1,1-2.3,1.3-3.5C142,73.1,142.7,72.1,142.7,72.1z M77.1,103.7l1.3,1.5
					c-6.5,4.4-14.9,8.2-14.9,8.2c7.3-4.8,9.8-7.7,9.8-7.7l-0.8-1.9c1.8-1.7,3.6-3.5,5.4-5.4c0.7,1,1.5,1.9,2.4,2.4
					C79.2,101.9,78.1,102.8,77.1,103.7z M126.8,98.6c-6.5,4.4-14.9,8.2-14.9,8.2c7.3-4.8,9.8-7.7,9.8-7.7l-0.8-1.9
					c1.1-1,2.2-2.1,3.3-3.2c2.6-1.6,4.7-3.8,5.9-6.3c0.9-1.1,1.8-2.1,2.7-3.1c0.7-0.3,1.4-0.7,2.1-1.2c0.7-0.1,1.2-0.4,1.5-0.6
					c0,0.2-0.1,0.4-0.1,0.6c-0.2,0-0.4,0-0.6,0c-1,0.1-1.8,1-1.9,2.2c0,0.1,0,0.1,0,0.2c-0.5,0.3-0.9,0.7-1.1,1.3
					c-0.2,0.4-0.2,0.8-0.2,1.2c-0.5,0.1-1,0.5-1.3,1.1c0,0,0,0.1-0.1,0.1c-0.1,0-0.2,0-0.3,0c-0.5,0.1-0.9,0.3-1.3,0.8
					c-0.1,0.1-0.1,0.1-0.1,0.2c-0.1,0.2-0.3,0.4-0.4,0.6c-0.4,0.9-0.3,1.9,0.1,2.9c-1.2,1.1-2.3,2.1-3.3,3L126.8,98.6z"/>
				<radialGradient id="SVGID_36_" cx="108.729" cy="35.7774" r="89.7087" gradientUnits="userSpaceOnUse">
					<stop  offset="0" style="stop-color:#FFFFFF"/>
					<stop  offset="0.3975" style="stop-color:#A0B6CE;stop-opacity:0.6022"/>
					<stop  offset="0.8119" style="stop-color:#426E9D;stop-opacity:0.1875"/>
					<stop  offset="0.9992" style="stop-color:#1D518A;stop-opacity:0"/>
				</radialGradient>
				<path class="st37" d="M36.4,71.3c-2.3-5.9-0.7-10.1,2.7-12.9c-2.8-5.8-1.3-10.3,2.2-13.4c-2.3,3-3.8,9.6,0.6,14.2
					C36.4,61.5,36,66.7,36.4,71.3z"/>
				<radialGradient id="SVGID_37_" cx="108.729" cy="35.7774" r="89.7087" gradientUnits="userSpaceOnUse">
					<stop  offset="0" style="stop-color:#FFFFFF"/>
					<stop  offset="0.3975" style="stop-color:#A0B6CE;stop-opacity:0.6022"/>
					<stop  offset="0.8119" style="stop-color:#426E9D;stop-opacity:0.1875"/>
					<stop  offset="0.9992" style="stop-color:#1D518A;stop-opacity:0"/>
				</radialGradient>
				<path class="st38" d="M86.6,21.7c3.4-2.7,8.8-2.4,11.8-1.3c0.8-5.8,4.5-7.8,7.9-7.9c-4.8,1.7-6.7,4.6-6.6,11.1
					C96.2,20.2,89.6,20.4,86.6,21.7z"/>
				<radialGradient id="SVGID_38_" cx="108.729" cy="35.7774" r="89.7087" gradientUnits="userSpaceOnUse">
					<stop  offset="0" style="stop-color:#FFFFFF"/>
					<stop  offset="0.3975" style="stop-color:#A0B6CE;stop-opacity:0.6022"/>
					<stop  offset="0.8119" style="stop-color:#426E9D;stop-opacity:0.1875"/>
					<stop  offset="0.9992" style="stop-color:#1D518A;stop-opacity:0"/>
				</radialGradient>
				<path class="st39" d="M48.6,77.8c-8,1.3-10,6.5-10.5,8.1c1.9-2.6,6.1-6.6,12.4-6.7"/>
				<radialGradient id="SVGID_39_" cx="108.729" cy="35.7774" r="89.7087" gradientUnits="userSpaceOnUse">
					<stop  offset="0" style="stop-color:#FFFFFF"/>
					<stop  offset="0.3975" style="stop-color:#A0B6CE;stop-opacity:0.6022"/>
					<stop  offset="0.8119" style="stop-color:#426E9D;stop-opacity:0.1875"/>
					<stop  offset="0.9992" style="stop-color:#1D518A;stop-opacity:0"/>
				</radialGradient>
				<path class="st40" d="M106.4,61.4c-4.4-0.3-6,2.3-10.1,5.5c4.8-1.2,5.6-4.4,10.3-4.1c4.7,0.4,5.3,1.6,5.5,4.9
					C113.8,63,110.8,61.7,106.4,61.4z"/>
				<radialGradient id="SVGID_40_" cx="108.729" cy="35.7774" r="89.7087" gradientUnits="userSpaceOnUse">
					<stop  offset="0" style="stop-color:#FFFFFF"/>
					<stop  offset="0.3975" style="stop-color:#A0B6CE;stop-opacity:0.6022"/>
					<stop  offset="0.8119" style="stop-color:#426E9D;stop-opacity:0.1875"/>
					<stop  offset="0.9992" style="stop-color:#1D518A;stop-opacity:0"/>
				</radialGradient>
				<path class="st41" d="M127.5,52.3c0.6-0.1,1.1-0.2,1.6-0.1c-3.4-3-10.7,6.2-12.5,1.2c0,0-1.8,0-2.3-1.1c1.2-1.5,1.8-3.5,1.2-5.7
					c-0.4,4.3-4.4,8.7-6.9,5.6c-5.8,3.3-7.5-0.1-11-5.7c-4.2-6.7-8.6-8.7-15.8-6c4,0,6.7,0.6,8.5,1.5c-1.8,14.9,5,25,14.3,13.5
					c1.1-0.1,2.3-0.5,3.6-1.3c1.1,1.1,3.3,0.6,5-0.8c0.4,0.7,0.9,1.2,2.2,1.3c0.1,0.5,0.2,0.8,0.4,1.1
					C114.9,62.2,122.1,61.6,127.5,52.3z M125.8,52.8c-2.9,5.5-9,7.9-8.8,3.6C120.5,57,122.6,54.2,125.8,52.8z M92.5,43.5
					c1.3,1.2,2.1,2.7,3.1,4.1c1.7,2.4,3.5,7.1,7.3,7.9C95.6,63.8,90.9,52.9,92.5,43.5z"/>
				<radialGradient id="SVGID_41_" cx="108.729" cy="35.7774" r="89.7087" gradientUnits="userSpaceOnUse">
					<stop  offset="0" style="stop-color:#FFFFFF"/>
					<stop  offset="0.3975" style="stop-color:#A0B6CE;stop-opacity:0.6022"/>
					<stop  offset="0.8119" style="stop-color:#426E9D;stop-opacity:0.1875"/>
					<stop  offset="0.9992" style="stop-color:#1D518A;stop-opacity:0"/>
				</radialGradient>
				<path class="st42" d="M106.2,65.3c1.4-0.2,2,0.1,2.5,0.4C108.7,64.8,107.7,64.2,106.2,65.3z"/>
				<g>
					<radialGradient id="SVGID_42_" cx="108.729" cy="35.7774" r="89.7087" gradientUnits="userSpaceOnUse">
						<stop  offset="0" style="stop-color:#FFFFFF"/>
						<stop  offset="0.3975" style="stop-color:#A0B6CE;stop-opacity:0.6022"/>
						<stop  offset="0.8119" style="stop-color:#426E9D;stop-opacity:0.1875"/>
						<stop  offset="0.9992" style="stop-color:#1D518A;stop-opacity:0"/>
					</radialGradient>
					<path class="st43" d="M140.7,74.8c1.3-1.6,2-2.6,2-2.6c1.5,1.5,2,3.4,2,3.4c-1.3,1.7-2.5,3.3-3.8,4.9c-0.2-0.8-0.7-1.5-1.4-2.2
						C140.1,77.1,140.5,75.9,140.7,74.8z M128.8,94.1c-0.4-1-0.5-2-0.1-2.9c0.1-0.2,0.2-0.5,0.4-0.6c0-0.1,0.1-0.1,0.1-0.2
						c0.4-0.5,0.9-0.7,1.3-0.8c0.1,0,0.2,0,0.3,0c0,0,0-0.1,0.1-0.1c0.3-0.6,0.8-1,1.3-1.1c0-0.4,0.1-0.8,0.2-1.2
						c0.3-0.6,0.7-1.1,1.1-1.3c0-0.1,0-0.1,0-0.2c0.1-1.2,0.9-2,1.9-2.2c0.2,0,0.4,0,0.6,0c0-0.2,0.1-0.4,0.1-0.6
						c-0.3,0.2-0.7,0.5-1.5,0.6c-0.6,0.4-1.3,0.8-2.1,1.2c-0.9,1-1.8,2.1-2.7,3.1c-1.2,2.5-3.2,4.7-5.9,6.3
						c-1.1,1.1-2.2,2.2-3.3,3.2l0.8,1.9c0,0-2.4,2.9-9.8,7.7c0,0,8.4-3.7,14.9-8.2l-1.3-1.5C126.6,96.2,127.7,95.2,128.8,94.1z"/>
					<radialGradient id="SVGID_43_" cx="108.729" cy="35.7774" r="89.7087" gradientUnits="userSpaceOnUse">
						<stop  offset="0" style="stop-color:#FFFFFF"/>
						<stop  offset="0.3975" style="stop-color:#A0B6CE;stop-opacity:0.6022"/>
						<stop  offset="0.8119" style="stop-color:#426E9D;stop-opacity:0.1875"/>
						<stop  offset="0.9992" style="stop-color:#1D518A;stop-opacity:0"/>
					</radialGradient>
					<path class="st44" d="M90,84.3c2.7-3.3,4.3-5.6,4.3-5.6c1.5,1.5,2,3.4,2,3.4c-1.6,2.2-3.2,4.3-4.8,6.3c-1-0.8-2.1-1.6-2.2-2.1
						C89.1,86,89.7,85.1,90,84.3z M77.9,98.4c-1.8,1.9-3.6,3.7-5.4,5.4l0.8,1.9c0,0-2.4,2.9-9.8,7.7c0,0,8.4-3.7,14.9-8.2l-1.3-1.5
						c1-0.9,2.1-1.8,3.2-2.9C79.4,100.3,78.6,99.5,77.9,98.4z"/>
				</g>
			</g>
		</g>
		<g>
			<g>
				<g>
					<defs>
						<path id="XMLID_6_" d="M130.7,80.5c0.3,1.1,0.5,2.2,0.4,3.3c9-3.1,11.2-13.7,4.6-18.6c-1.9,1-3.9,1.6-6,1.9
							c20-9.3,19.4-27.8,7.6-29.3c-0.9,0.8-2.1,1.6-3.3,2.2c6.1-4.2,7.4-11.7,3.9-15.5c-4-4.4-11.1-2.9-16-0.1
							C121.2,4.9,103,2.9,91.1,8.2c-9,4-15.2,14.3-9.7,25.6c-2.3-2.5-3.7-5.5-4-8.6c-9.2-2-20.1,3-22.8,12.1
							c-3.9-0.6-11.7-1.1-18.1,4.7s-9.1,16.9,0.1,22c-4-1.3-6.1-3.1-7.1-5.8c-9.1,2.8-10.8,14.4-9,18.7C9.3,73.2,0.8,84,6.4,90.5
							c3.9,4.5,13,4.3,22.7-1.6c-1.4,1.5-3.1,2.8-4.9,3.8c3.2,2.4,7.7,1.9,11.2-0.1c7.3,4.5,13.1,1.6,18.2-2.6
							c-0.8,1.2-1.7,2.3-2.7,3.2c4,3.4,13.1,4,18.9-0.9c1.8,1.7,4.2,3.2,7.1,4.3c-0.5-1.1-0.8-2.3-1-3.5
							C69.5,90.2,52.4,82.1,49,79.2c-3.3-2.9-3.7-4.1-2.6-12c0.5-4.2,3.9-11.7,15.3-18.9c-11.9,10.3-13.8,18.1-14,23
							c-0.2,4.9,1.2,5.8,6.6,9c5.4,3.1,16.4,8.7,18.2,9.4c2.4,0.9,3.7,2.2,4.4-0.2c0.6,1.2,0.1,2.4,1.9,6.3c1.8,3.9,3,4.2,5.6,3.2
							c-0.7-0.6-1.3-1.6-1.3-1.6c3.3,1.9,4.2-0.4,4.2-0.4c-1.8-0.6-2.5-1.8-2.5-1.8c4.9,2,5.4-1.3,5.4-1.3c-2.3,0.2-3.7-1.1-3.7-1.1
							c2.9,0.6,4.4-0.2,4.4-0.2c1.9-2.9-0.5-3.7-2-4.8c-1.5-1.1-0.8-2.1,0-3.4c0.8-1.4-1.8-1.8-7.1,0c0,0-3.1-1.2-6.9-5.8
							c-3.8-4.6-6.8-6.9-12.9-12.9c1.8,0.5,3.5,1.5,5.1,2.8c6-2.3,8.2-6.1,11.7-9.6c-1.8,3.2-4.5,7.7-10.3,10.9
							c3.9,3.6,7.8,8.8,13.4,12.9c3.9-0.7,6.7-1.2,8-0.2c2.8-3.5,4.6-5.8,4.6-5.8c2.9,3.3,3.7,5.4,3.7,5.4c-1.7,2.7-3.6,5.2-5.5,7.5
							c0.1,0.2,0.2,0.3,0.2,0.4c0,0.7-0.3,2.4-1.1,3.3c-0.6,1.1-0.6,2.3-2.5,3.4c-0.2,0.5-0.5,1-0.8,1.5c7.3-0.4,15.2-3.6,21.6-11.1
							c-0.7,1.3-1.6,2.6-2.6,3.8C115.6,97.7,130.1,94,130.7,80.5z M106.2,65.3c1.5-1.1,2.6-0.5,2.5,0.4
							C108.2,65.4,107.6,65.1,106.2,65.3z M112.2,67.6c-0.2-3.2-0.8-4.5-5.5-4.9c-4.7-0.4-5.5,2.9-10.3,4.1
							c4.1-3.1,5.7-5.8,10.1-5.5C110.8,61.7,113.8,63,112.2,67.6z M115.9,55.8c-0.2-0.3-0.3-0.6-0.4-1.1c-1.3-0.1-1.9-0.6-2.2-1.3
							c-1.7,1.4-3.9,1.9-5,0.8c-1.3,0.8-2.5,1.2-3.6,1.3C95.4,67,88.6,57,90.4,42c-1.9-0.9-4.5-1.5-8.5-1.5c7.1-2.7,11.6-0.7,15.8,6
							c3.5,5.6,5.2,9,11,5.7c2.4,3,6.5-1.3,6.9-5.6c0.6,2.3-0.1,4.3-1.2,5.7c0.5,1.1,2.3,1.1,2.3,1.1c1.7,4.9,9.1-4.2,12.5-1.2
							c-0.5-0.1-1-0.1-1.6,0.1C122.1,61.6,114.9,62.2,115.9,55.8z"/>
					</defs>
					<clipPath id="XMLID_4_">
						<use xlink:href="#XMLID_6_"  style="overflow:visible;"/>
					</clipPath>
				</g>
			</g>
		</g>
	</g>
</g>
</svg>
